<svg xmlns="http://www.w3.org/2000/svg" viewBox="0 0 923.08 221.02"><defs><style>.cls-1{fill:#c5412b;}.cls-2{fill:#999;}</style></defs><g id="Layer_2" data-name="Layer 2"><g id="Layer_1-2" data-name="Layer 1"><path class="cls-1" d="M0,0H216V221H0Z"/><path d="M29.07,136l-.23-45.08s24.06,8.57,40.49,8.85l.27,28.89a128,128,0,0,0-40,7.68"/><path d="M77.81,99.46l13.25-.27.27,29.42h-13Zm34.71,5.69L104,114.28l9.1,9.24L121.5,114Zm-13-27.31L128,77.71l.27,13.76H99.93Zm37.06,40.37-20.26,20.12,9.93,9.66,19.06-19.38Z"/><path d="M91.31,28.16l45.07-.23s-9,25.25-9.25,41.68l-27.43.13A155.76,155.76,0,0,0,91,28.68m96.95,128.61L156.29,189.4s-11.58-24.16-23-36l19.25-19.54a156,156,0,0,0,35.28,22.77"/><path class="cls-2" d="M238,0H394V46H238Zm0,46V221h48V156.68h21V221h87V174H350V156.68h44V46H350v64.92H286V46ZM418,0V221h153V0H527V174H464V0Zm329,0h-152V128.61h107V174h-107v47h152V81.63h-107V46h107Zm23,0h153V46h-54V221h-43V46h-56Z"/></g></g></svg>